<?xml version="1.0" encoding="UTF-8" standalone="no"?>
<!DOCTYPE svg PUBLIC "-//W3C//DTD SVG 1.1//EN"
 "http://www.w3.org/Graphics/SVG/1.1/DTD/svg11.dtd">
<!-- Generated by graphviz version 2.44.1 (20200629.0846)
 -->
<!-- Title: data_structures::linked_list::list Pages: 1 -->
<svg width="258pt" height="139pt"
 viewBox="0.00 0.00 258.00 139.00" xmlns="http://www.w3.org/2000/svg" xmlns:xlink="http://www.w3.org/1999/xlink">
<g id="graph0" class="graph" transform="scale(1 1) rotate(0) translate(4 135)">
<title>data_structures::linked_list::list</title>
<polygon fill="white" stroke="transparent" points="-4,4 -4,-135 254,-135 254,4 -4,4"/>
<!-- Node1 -->
<g id="node1" class="node">
<title>Node1</title>
<g id="a_node1"><a xlink:title=" ">
<polygon fill="#bfbfbf" stroke="black" points="0,-0.5 0,-30.5 116,-30.5 116,-0.5 0,-0.5"/>
<text text-anchor="start" x="8" y="-18.5" font-family="Helvetica,sans-Serif" font-size="10.00">data_structures::linked</text>
<text text-anchor="middle" x="58" y="-7.5" font-family="Helvetica,sans-Serif" font-size="10.00">_list::list</text>
</a>
</g>
</g>
<!-- Node2 -->
<g id="node2" class="node">
<title>Node2</title>
<g id="a_node2"><a target="_blank" xlink:href="http://en.cppreference.com/w/cpp/memory/shared_ptr.html" target="_top" xlink:title=" ">
<polygon fill="white" stroke="black" points="86.5,-89.5 86.5,-130.5 201.5,-130.5 201.5,-89.5 86.5,-89.5"/>
<text text-anchor="start" x="94.5" y="-118.5" font-family="Helvetica,sans-Serif" font-size="10.00">std::shared_ptr&lt; data</text>
<text text-anchor="start" x="94.5" y="-107.5" font-family="Helvetica,sans-Serif" font-size="10.00">_structures::linked_list</text>
<text text-anchor="middle" x="144" y="-96.5" font-family="Helvetica,sans-Serif" font-size="10.00">::link &gt;</text>
</a>
</g>
</g>
<!-- Node2&#45;&gt;Node1 -->
<g id="edge1" class="edge">
<title>Node2&#45;&gt;Node1</title>
<path fill="none" stroke="#9a32cd" stroke-dasharray="5,2" d="M118.89,-82C103.27,-65.2 83.82,-44.27 71.17,-30.66"/>
<polygon fill="#9a32cd" stroke="#9a32cd" points="116.39,-84.44 125.76,-89.38 121.52,-79.68 116.39,-84.44"/>
<text text-anchor="middle" x="116" y="-63" font-family="Helvetica,sans-Serif" font-size="10.00"> first</text>
<text text-anchor="middle" x="116" y="-52" font-family="Helvetica,sans-Serif" font-size="10.00">last</text>
</g>
<!-- Node3 -->
<g id="node3" class="node">
<title>Node3</title>
<g id="a_node3"><a xlink:href="../../de/d9d/classdata__structures_1_1linked__list_1_1link.html" target="_top" xlink:title=" ">
<polygon fill="white" stroke="black" points="134,-0.5 134,-30.5 250,-30.5 250,-0.5 134,-0.5"/>
<text text-anchor="start" x="142" y="-18.5" font-family="Helvetica,sans-Serif" font-size="10.00">data_structures::linked</text>
<text text-anchor="middle" x="192" y="-7.5" font-family="Helvetica,sans-Serif" font-size="10.00">_list::link</text>
</a>
</g>
</g>
<!-- Node2&#45;&gt;Node3 -->
<g id="edge3" class="edge">
<title>Node2&#45;&gt;Node3</title>
<path fill="none" stroke="#9a32cd" stroke-dasharray="5,2" d="M136.41,-79.33C135.35,-69.18 136.01,-58.09 141,-49 145.14,-41.45 151.86,-35.4 159.08,-30.67"/>
<polygon fill="#9a32cd" stroke="#9a32cd" points="132.99,-80.13 138.03,-89.46 139.91,-79.03 132.99,-80.13"/>
<text text-anchor="middle" x="153.5" y="-57.5" font-family="Helvetica,sans-Serif" font-size="10.00"> succ</text>
</g>
<!-- Node3&#45;&gt;Node2 -->
<g id="edge2" class="edge">
<title>Node3&#45;&gt;Node2</title>
<path fill="none" stroke="#9a32cd" stroke-dasharray="5,2" d="M183.7,-40.25C179.96,-49.99 175.22,-61.25 170,-71 166.68,-77.2 162.57,-83.63 158.6,-89.39"/>
<polygon fill="#9a32cd" stroke="#9a32cd" points="187.02,-41.36 187.2,-30.77 180.45,-38.93 187.02,-41.36"/>
<text text-anchor="middle" x="187.5" y="-57.5" font-family="Helvetica,sans-Serif" font-size="10.00"> ptr</text>
</g>
</g>
</svg>
